<mxfile host="app.diagrams.net" modified="2024-04-24T18:02:01.325Z" agent="Mozilla/5.0 (Windows NT 10.0; Win64; x64) AppleWebKit/537.36 (KHTML, like Gecko) Chrome/124.0.0.0 Safari/537.36" etag="KbRJ6n-bAWQFAAFRRily" version="24.2.8" type="github">
  <diagram name="Seite-1" id="fxTCoQSqkQ5oMB2m1nn2">
    <mxGraphModel dx="525" dy="322" grid="1" gridSize="10" guides="1" tooltips="1" connect="1" arrows="1" fold="1" page="1" pageScale="1" pageWidth="827" pageHeight="1169" math="0" shadow="0">
      <root>
        <mxCell id="0" />
        <mxCell id="1" parent="0" />
        <mxCell id="BMQXKfx8EHV-bqScM2LJ-1" value="Trainings Plan" style="swimlane;fontStyle=0;childLayout=stackLayout;horizontal=1;startSize=26;fillColor=none;horizontalStack=0;resizeParent=1;resizeParentMax=0;resizeLast=0;collapsible=1;marginBottom=0;whiteSpace=wrap;html=1;" parent="1" vertex="1">
          <mxGeometry x="530" y="423" width="140" height="162" as="geometry" />
        </mxCell>
        <mxCell id="BMQXKfx8EHV-bqScM2LJ-2" value="+Id in(PK)&lt;div&gt;&lt;br&gt;&lt;div&gt;&lt;br&gt;&lt;div&gt;+ UserID int !=null&lt;/div&gt;&lt;/div&gt;&lt;/div&gt;" style="text;strokeColor=none;fillColor=none;align=left;verticalAlign=top;spacingLeft=4;spacingRight=4;overflow=hidden;rotatable=0;points=[[0,0.5],[1,0.5]];portConstraint=eastwest;whiteSpace=wrap;html=1;" parent="BMQXKfx8EHV-bqScM2LJ-1" vertex="1">
          <mxGeometry y="26" width="140" height="34" as="geometry" />
        </mxCell>
        <mxCell id="O21Ok9b6FJP_CjCCAfm_-6" value="+UserID int = !null" style="text;html=1;align=center;verticalAlign=middle;resizable=0;points=[];autosize=1;strokeColor=none;fillColor=none;" parent="BMQXKfx8EHV-bqScM2LJ-1" vertex="1">
          <mxGeometry y="60" width="140" height="30" as="geometry" />
        </mxCell>
        <mxCell id="BMQXKfx8EHV-bqScM2LJ-4" value="+ Dauer string != null&lt;div&gt;&lt;br&gt;&lt;/div&gt;&lt;div&gt;+ Name string != null&amp;nbsp;&lt;/div&gt;" style="text;strokeColor=none;fillColor=none;align=left;verticalAlign=top;spacingLeft=4;spacingRight=4;overflow=hidden;rotatable=0;points=[[0,0.5],[1,0.5]];portConstraint=eastwest;whiteSpace=wrap;html=1;" parent="BMQXKfx8EHV-bqScM2LJ-1" vertex="1">
          <mxGeometry y="90" width="140" height="44" as="geometry" />
        </mxCell>
        <mxCell id="BMQXKfx8EHV-bqScM2LJ-3" value="&lt;div&gt;&lt;br&gt;&lt;/div&gt;" style="text;strokeColor=none;fillColor=none;align=left;verticalAlign=top;spacingLeft=4;spacingRight=4;overflow=hidden;rotatable=0;points=[[0,0.5],[1,0.5]];portConstraint=eastwest;whiteSpace=wrap;html=1;" parent="BMQXKfx8EHV-bqScM2LJ-1" vertex="1">
          <mxGeometry y="134" width="140" height="28" as="geometry" />
        </mxCell>
        <mxCell id="BMQXKfx8EHV-bqScM2LJ-5" value="Kunde" style="swimlane;fontStyle=1;align=center;verticalAlign=top;childLayout=stackLayout;horizontal=1;startSize=26;horizontalStack=0;resizeParent=1;resizeParentMax=0;resizeLast=0;collapsible=1;marginBottom=0;whiteSpace=wrap;html=1;" parent="1" vertex="1">
          <mxGeometry x="270" y="500" width="160" height="250" as="geometry">
            <mxRectangle x="323" y="480" width="80" height="30" as="alternateBounds" />
          </mxGeometry>
        </mxCell>
        <mxCell id="BMQXKfx8EHV-bqScM2LJ-6" value="+Id int (PK)&lt;div&gt;&lt;br&gt;&lt;/div&gt;&lt;div&gt;+name string != null&lt;/div&gt;&lt;div&gt;&lt;br&gt;&lt;/div&gt;&lt;div&gt;+Gewicht string != null&lt;/div&gt;&lt;div&gt;&lt;br&gt;&lt;/div&gt;&lt;div&gt;+Alter string != null&lt;/div&gt;&lt;div&gt;&lt;br&gt;&lt;/div&gt;&lt;div&gt;+Grösse string != null&lt;/div&gt;&lt;div&gt;&lt;br&gt;&lt;/div&gt;&lt;div&gt;+Geschlecht char != null&lt;/div&gt;&lt;div&gt;&lt;span style=&quot;background-color: initial;&quot;&gt;&lt;br&gt;&lt;/span&gt;&lt;/div&gt;&lt;div&gt;&lt;span style=&quot;background-color: initial;&quot;&gt;-password string != null&amp;nbsp;&lt;/span&gt;&lt;/div&gt;&lt;div&gt;&lt;br&gt;&lt;/div&gt;&lt;div&gt;&lt;br&gt;&lt;/div&gt;" style="text;strokeColor=none;fillColor=none;align=left;verticalAlign=top;spacingLeft=4;spacingRight=4;overflow=hidden;rotatable=0;points=[[0,0.5],[1,0.5]];portConstraint=eastwest;whiteSpace=wrap;html=1;" parent="BMQXKfx8EHV-bqScM2LJ-5" vertex="1">
          <mxGeometry y="26" width="160" height="224" as="geometry" />
        </mxCell>
        <mxCell id="BMQXKfx8EHV-bqScM2LJ-9" value="&lt;div&gt;&lt;br&gt;&lt;/div&gt;&lt;div&gt;&lt;br&gt;&lt;/div&gt;" style="text;strokeColor=none;fillColor=none;align=left;verticalAlign=top;spacingLeft=4;spacingRight=4;overflow=hidden;rotatable=0;points=[[0,0.5],[1,0.5]];portConstraint=eastwest;whiteSpace=wrap;html=1;" parent="1" vertex="1">
          <mxGeometry x="330" y="442" width="140" height="26" as="geometry" />
        </mxCell>
        <mxCell id="BMQXKfx8EHV-bqScM2LJ-11" value="Aktivitäten" style="swimlane;fontStyle=0;childLayout=stackLayout;horizontal=1;startSize=26;fillColor=none;horizontalStack=0;resizeParent=1;resizeParentMax=0;resizeLast=0;collapsible=1;marginBottom=0;whiteSpace=wrap;html=1;" parent="1" vertex="1">
          <mxGeometry x="760" y="360" width="190" height="190" as="geometry" />
        </mxCell>
        <mxCell id="BMQXKfx8EHV-bqScM2LJ-12" value="+ Id int (PK)" style="text;strokeColor=none;fillColor=none;align=left;verticalAlign=top;spacingLeft=4;spacingRight=4;overflow=hidden;rotatable=0;points=[[0,0.5],[1,0.5]];portConstraint=eastwest;whiteSpace=wrap;html=1;" parent="BMQXKfx8EHV-bqScM2LJ-11" vertex="1">
          <mxGeometry y="26" width="190" height="26" as="geometry" />
        </mxCell>
        <mxCell id="BMQXKfx8EHV-bqScM2LJ-13" value="+name string != null" style="text;strokeColor=none;fillColor=none;align=left;verticalAlign=top;spacingLeft=4;spacingRight=4;overflow=hidden;rotatable=0;points=[[0,0.5],[1,0.5]];portConstraint=eastwest;whiteSpace=wrap;html=1;" parent="BMQXKfx8EHV-bqScM2LJ-11" vertex="1">
          <mxGeometry y="52" width="190" height="26" as="geometry" />
        </mxCell>
        <mxCell id="BMQXKfx8EHV-bqScM2LJ-14" value="+dauer int != null&lt;div&gt;&lt;br&gt;&lt;/div&gt;&lt;div&gt;+Typ string != nul&lt;span style=&quot;background-color: initial;&quot;&gt;l&lt;/span&gt;&lt;/div&gt;&lt;div&gt;&lt;span style=&quot;background-color: initial;&quot;&gt;&lt;br&gt;&lt;/span&gt;&lt;/div&gt;&lt;div&gt;+Wiedeholung int != null&lt;/div&gt;&lt;div&gt;&lt;br&gt;&lt;/div&gt;&lt;div&gt;+Wdh ProSatz int !null&amp;nbsp;&lt;/div&gt;&lt;div&gt;&lt;span style=&quot;background-color: initial;&quot;&gt;&lt;br&gt;&lt;/span&gt;&lt;/div&gt;&lt;div&gt;&lt;span style=&quot;background-color: initial;&quot;&gt;&lt;br&gt;&lt;/span&gt;&lt;/div&gt;" style="text;strokeColor=none;fillColor=none;align=left;verticalAlign=top;spacingLeft=4;spacingRight=4;overflow=hidden;rotatable=0;points=[[0,0.5],[1,0.5]];portConstraint=eastwest;whiteSpace=wrap;html=1;" parent="BMQXKfx8EHV-bqScM2LJ-11" vertex="1">
          <mxGeometry y="78" width="190" height="112" as="geometry" />
        </mxCell>
        <mxCell id="BMQXKfx8EHV-bqScM2LJ-15" value="DietPlan" style="swimlane;fontStyle=0;childLayout=stackLayout;horizontal=1;startSize=26;fillColor=none;horizontalStack=0;resizeParent=1;resizeParentMax=0;resizeLast=0;collapsible=1;marginBottom=0;whiteSpace=wrap;html=1;" parent="1" vertex="1">
          <mxGeometry x="525" y="608" width="150" height="150" as="geometry" />
        </mxCell>
        <mxCell id="BMQXKfx8EHV-bqScM2LJ-16" value="+ int Id(PK)" style="text;strokeColor=none;fillColor=none;align=left;verticalAlign=top;spacingLeft=4;spacingRight=4;overflow=hidden;rotatable=0;points=[[0,0.5],[1,0.5]];portConstraint=eastwest;whiteSpace=wrap;html=1;" parent="BMQXKfx8EHV-bqScM2LJ-15" vertex="1">
          <mxGeometry y="26" width="150" height="26" as="geometry" />
        </mxCell>
        <mxCell id="BMQXKfx8EHV-bqScM2LJ-17" value="+ UserID int != null" style="text;strokeColor=none;fillColor=none;align=left;verticalAlign=top;spacingLeft=4;spacingRight=4;overflow=hidden;rotatable=0;points=[[0,0.5],[1,0.5]];portConstraint=eastwest;whiteSpace=wrap;html=1;" parent="BMQXKfx8EHV-bqScM2LJ-15" vertex="1">
          <mxGeometry y="52" width="150" height="26" as="geometry" />
        </mxCell>
        <mxCell id="BMQXKfx8EHV-bqScM2LJ-18" value="+ KalorienperTag != null&lt;div&gt;&lt;br&gt;&lt;/div&gt;&lt;div&gt;+ ProteinePerTag != null&lt;/div&gt;" style="text;strokeColor=none;fillColor=none;align=left;verticalAlign=top;spacingLeft=4;spacingRight=4;overflow=hidden;rotatable=0;points=[[0,0.5],[1,0.5]];portConstraint=eastwest;whiteSpace=wrap;html=1;" parent="BMQXKfx8EHV-bqScM2LJ-15" vertex="1">
          <mxGeometry y="78" width="150" height="72" as="geometry" />
        </mxCell>
        <mxCell id="BMQXKfx8EHV-bqScM2LJ-19" value="Ernahrung" style="swimlane;fontStyle=0;childLayout=stackLayout;horizontal=1;startSize=26;fillColor=none;horizontalStack=0;resizeParent=1;resizeParentMax=0;resizeLast=0;collapsible=1;marginBottom=0;whiteSpace=wrap;html=1;" parent="1" vertex="1">
          <mxGeometry x="760" y="598" width="160" height="170" as="geometry" />
        </mxCell>
        <mxCell id="BMQXKfx8EHV-bqScM2LJ-20" value="+ Id int (PK)" style="text;strokeColor=none;fillColor=none;align=left;verticalAlign=top;spacingLeft=4;spacingRight=4;overflow=hidden;rotatable=0;points=[[0,0.5],[1,0.5]];portConstraint=eastwest;whiteSpace=wrap;html=1;" parent="BMQXKfx8EHV-bqScM2LJ-19" vertex="1">
          <mxGeometry y="26" width="160" height="26" as="geometry" />
        </mxCell>
        <mxCell id="BMQXKfx8EHV-bqScM2LJ-21" value="+ name string != null" style="text;strokeColor=none;fillColor=none;align=left;verticalAlign=top;spacingLeft=4;spacingRight=4;overflow=hidden;rotatable=0;points=[[0,0.5],[1,0.5]];portConstraint=eastwest;whiteSpace=wrap;html=1;" parent="BMQXKfx8EHV-bqScM2LJ-19" vertex="1">
          <mxGeometry y="52" width="160" height="26" as="geometry" />
        </mxCell>
        <mxCell id="BMQXKfx8EHV-bqScM2LJ-22" value="+ Kalorien int != null&lt;div&gt;&lt;br&gt;&lt;/div&gt;&lt;div&gt;+Proteins int != null&lt;/div&gt;&lt;div&gt;&lt;br&gt;&lt;/div&gt;&lt;div&gt;+ TimeOfDay string != null&lt;/div&gt;&lt;div&gt;&lt;br&gt;&lt;/div&gt;" style="text;strokeColor=none;fillColor=none;align=left;verticalAlign=top;spacingLeft=4;spacingRight=4;overflow=hidden;rotatable=0;points=[[0,0.5],[1,0.5]];portConstraint=eastwest;whiteSpace=wrap;html=1;" parent="BMQXKfx8EHV-bqScM2LJ-19" vertex="1">
          <mxGeometry y="78" width="160" height="92" as="geometry" />
        </mxCell>
        <mxCell id="BMQXKfx8EHV-bqScM2LJ-24" value="" style="endArrow=diamondThin;endFill=1;endSize=24;html=1;rounded=0;entryX=1.012;entryY=0.386;entryDx=0;entryDy=0;entryPerimeter=0;exitX=0;exitY=0.5;exitDx=0;exitDy=0;" parent="1" source="BMQXKfx8EHV-bqScM2LJ-4" target="BMQXKfx8EHV-bqScM2LJ-6" edge="1">
          <mxGeometry width="160" relative="1" as="geometry">
            <mxPoint x="430" y="590" as="sourcePoint" />
            <mxPoint x="590" y="590" as="targetPoint" />
            <Array as="points">
              <mxPoint x="530" y="490" />
            </Array>
          </mxGeometry>
        </mxCell>
        <mxCell id="BMQXKfx8EHV-bqScM2LJ-25" value="0.." style="text;html=1;align=center;verticalAlign=middle;resizable=0;points=[];autosize=1;strokeColor=none;fillColor=none;" parent="1" vertex="1">
          <mxGeometry x="420" y="548" width="40" height="30" as="geometry" />
        </mxCell>
        <mxCell id="BMQXKfx8EHV-bqScM2LJ-27" value="" style="endArrow=diamondThin;endFill=1;endSize=24;html=1;rounded=0;entryX=0.99;entryY=0.719;entryDx=0;entryDy=0;entryPerimeter=0;exitX=-0.011;exitY=-0.041;exitDx=0;exitDy=0;exitPerimeter=0;" parent="1" source="BMQXKfx8EHV-bqScM2LJ-18" target="BMQXKfx8EHV-bqScM2LJ-6" edge="1">
          <mxGeometry width="160" relative="1" as="geometry">
            <mxPoint x="360" y="700" as="sourcePoint" />
            <mxPoint x="520" y="700" as="targetPoint" />
          </mxGeometry>
        </mxCell>
        <mxCell id="BMQXKfx8EHV-bqScM2LJ-28" value="" style="endArrow=diamondThin;endFill=1;endSize=24;html=1;rounded=0;entryX=1;entryY=0.5;entryDx=0;entryDy=0;exitX=0;exitY=0.043;exitDx=0;exitDy=0;exitPerimeter=0;" parent="1" source="BMQXKfx8EHV-bqScM2LJ-22" edge="1">
          <mxGeometry width="160" relative="1" as="geometry">
            <mxPoint x="759.9999999999998" y="683.9040000000001" as="sourcePoint" />
            <mxPoint x="671.5" y="682.1" as="targetPoint" />
          </mxGeometry>
        </mxCell>
        <mxCell id="BMQXKfx8EHV-bqScM2LJ-29" value="0.." style="text;html=1;align=center;verticalAlign=middle;resizable=0;points=[];autosize=1;strokeColor=none;fillColor=none;" parent="1" vertex="1">
          <mxGeometry x="420" y="608" width="40" height="30" as="geometry" />
        </mxCell>
        <mxCell id="BMQXKfx8EHV-bqScM2LJ-30" value="1" style="text;html=1;align=center;verticalAlign=middle;resizable=0;points=[];autosize=1;strokeColor=none;fillColor=none;" parent="1" vertex="1">
          <mxGeometry x="505" y="658" width="30" height="30" as="geometry" />
        </mxCell>
        <mxCell id="BMQXKfx8EHV-bqScM2LJ-31" value="1" style="text;html=1;align=center;verticalAlign=middle;resizable=0;points=[];autosize=1;strokeColor=none;fillColor=none;" parent="1" vertex="1">
          <mxGeometry x="665" y="668" width="30" height="30" as="geometry" />
        </mxCell>
        <mxCell id="BMQXKfx8EHV-bqScM2LJ-32" value="1.." style="text;html=1;align=center;verticalAlign=middle;resizable=0;points=[];autosize=1;strokeColor=none;fillColor=none;" parent="1" vertex="1">
          <mxGeometry x="720" y="708" width="40" height="30" as="geometry" />
        </mxCell>
        <mxCell id="BMQXKfx8EHV-bqScM2LJ-33" value="" style="endArrow=diamondThin;endFill=1;endSize=24;html=1;rounded=0;entryX=1.013;entryY=0.819;entryDx=0;entryDy=0;entryPerimeter=0;exitX=0;exitY=0.129;exitDx=0;exitDy=0;exitPerimeter=0;" parent="1" source="BMQXKfx8EHV-bqScM2LJ-14" target="BMQXKfx8EHV-bqScM2LJ-2" edge="1">
          <mxGeometry width="160" relative="1" as="geometry">
            <mxPoint x="670" y="540" as="sourcePoint" />
            <mxPoint x="830" y="540" as="targetPoint" />
          </mxGeometry>
        </mxCell>
        <mxCell id="BMQXKfx8EHV-bqScM2LJ-34" value="1" style="text;html=1;align=center;verticalAlign=middle;resizable=0;points=[];autosize=1;strokeColor=none;fillColor=none;" parent="1" vertex="1">
          <mxGeometry x="665" y="478" width="30" height="30" as="geometry" />
        </mxCell>
        <mxCell id="BMQXKfx8EHV-bqScM2LJ-35" value="1.." style="text;html=1;align=center;verticalAlign=middle;resizable=0;points=[];autosize=1;strokeColor=none;fillColor=none;" parent="1" vertex="1">
          <mxGeometry x="720" y="478" width="40" height="30" as="geometry" />
        </mxCell>
      </root>
    </mxGraphModel>
  </diagram>
</mxfile>
